<?xml version="1.0" encoding="utf-8"?>
<!-- Generator: Adobe Illustrator 24.3.0, SVG Export Plug-In . SVG Version: 6.00 Build 0)  -->
<svg version="1.1" id="Layer_1" xmlns="http://www.w3.org/2000/svg" xmlns:xlink="http://www.w3.org/1999/xlink" x="0px" y="0px"
	 viewBox="0 0 100 100" style="enable-background:new 0 0 100 100;" xml:space="preserve">
<style type="text/css">
	.st0{fill:#FFFFFF;}
	.st1{fill:#231F20;}
	.st2{enable-background:new    ;}
	.st3{clip-path:url(#SVGID_2_);enable-background:new    ;}
	.st4{fill:#121011;}
	.st5{fill:#131111;}
	.st6{fill:#141112;}
	.st7{fill:#141213;}
	.st8{fill:#151313;}
	.st9{fill:#161314;}
	.st10{fill:#161414;}
	.st11{fill:#171415;}
	.st12{fill:#181516;}
	.st13{fill:#191616;}
	.st14{fill:#191617;}
	.st15{fill:#1A1718;}
	.st16{fill:#1B1818;}
	.st17{fill:#1B1819;}
	.st18{fill:#1C191A;}
	.st19{fill:#1D191A;}
	.st20{fill:#1D1A1B;}
	.st21{fill:#1E1B1C;}
	.st22{fill:#1F1B1C;}
	.st23{fill:#201C1D;}
	.st24{fill:#201D1D;}
	.st25{fill:#211D1E;}
	.st26{fill:#221E1F;}
	.st27{clip-path:url(#SVGID_4_);enable-background:new    ;}
	.st28{fill:#3D3A3B;}
	.st29{fill:#484546;}
	.st30{fill:#514E4E;}
	.st31{fill:#585556;}
	.st32{fill:#5E5B5C;}
	.st33{fill:#646162;}
	.st34{fill:#696667;}
	.st35{fill:#6E6B6C;}
	.st36{clip-path:url(#SVGID_6_);enable-background:new    ;}
	.st37{clip-path:url(#SVGID_8_);enable-background:new    ;}
	.st38{clip-path:url(#SVGID_10_);enable-background:new    ;}
	.st39{clip-path:url(#SVGID_12_);enable-background:new    ;}
	.st40{clip-path:url(#SVGID_14_);enable-background:new    ;}
	.st41{clip-path:url(#SVGID_16_);enable-background:new    ;}
	.st42{fill:#141212;}
	.st43{clip-path:url(#SVGID_18_);enable-background:new    ;}
	.st44{clip-path:url(#SVGID_20_);enable-background:new    ;}
	.st45{clip-path:url(#SVGID_22_);enable-background:new    ;}
	.st46{clip-path:url(#SVGID_24_);enable-background:new    ;}
	.st47{clip-path:url(#SVGID_26_);enable-background:new    ;}
	.st48{clip-path:url(#SVGID_28_);enable-background:new    ;}
	.st49{clip-path:url(#SVGID_30_);enable-background:new    ;}
	.st50{clip-path:url(#SVGID_32_);enable-background:new    ;}
</style>
<rect x="0" y="0.2" class="st0" width="99.6" height="99.1"/>
<path class="st1" d="M44.1,41.7c-3.5-0.5-6.9,4.2-8.8,6.3c-3.1,3.4-5.7,6.9-7.8,10.9c-1.2,2.3-2.2,4.7-3.3,7.1l-1.6,3.6
	c1.4-4.2,2.8-8.3,4.3-12.5c0.2-0.6,0.5-1.4,0.8-2c-1,2.3-3,4.1-4.5,6c-1.6,2-2.9,4.7-3.8,7.1c0.5-1.3,1.1-2.6,1.5-3.9
	c0.4-1.3,0.5-2.6,0.8-3.9c1.8-6.8,7.3-11.9,9.2-18.7c-2.5,2.8-4.6,5.9-6.7,9c-2,2.8-4.3,5.5-6.2,8.3c-3.1,4.6-4.9,12.5,0.5,16.2
	c-3.3-2.3-5.3-5-6.7-8.7c-1.6-4.5-2.3-9.3-2.2-14.2c0.2-8.4,3.5-16.5,8.1-23.4c0.6-1,1.4-1.9,2-2.9c0.6-0.7,1.4-2.7,2.2-3.1
	c-0.9,0.4-1.7,0.9-2.6,1.3c0.7-1.5,2.2-2.5,3.6-3.5c2.2-1.6,4.7-2.8,7.1-4c4.7-2.2,10.1-3.7,15.3-2.6c1.7,0.3,3.3,1.1,5.1,1.1
	c-0.6,0-2-1.4-2.5-1.8c-1.8-1.2-3.9-1.8-6-2.4c2.5,0.6,5,0.5,7.2,1.8c1.1,0.7,1.9,1.1,3.3,1c2.3-0.2,4.4,1.4,6.8,1.2
	c2.2-0.2,3.9-2.2,6.2-2.2c3.2-0.1,6.1,2.5,8.8,3.9c1.7,0.9,4,2.1,4.7,4.1c-0.3-1.1-2-1.6-3-2c-1.4-0.6-2.7-1.6-4.1-2.2
	c-1-0.4-3-0.7-3.8-0.3c-2.2,1,1.4,2.3,2.2,2.5c2.7,0.5,5.3,1,7.4,2.9c1.8,1.7,3.1,3.9,4.9,5.5c1.5,1.4,3.1,2.7,4.2,4.5
	c0.8,1.4,1.1,2.9,1.4,4.4c0.2,1.6,0.7,3.1,1,4.7c0.3,1.3,0.2,2.6,0.2,3.9c0-1.2-0.3-2.8-1-3.8c-0.2,1.2-0.2,2.6-0.3,3.8
	c-0.1,2.2-1.6,4.2-2.4,6.2c-0.9,2.2-0.6,4.5-1,6.7c-0.2,1.7-1.1,3.1-1.6,4.7c-0.5,1.7-0.3,3.4-0.2,5.1c0.2,2.2-0.5,3.9-1,5.9
	s-0.3,4.1-0.6,6.1c-0.2,1.7-0.4,3.5-0.9,5.1c-0.2,0.8-0.5,1.6-0.8,2.3c-0.2,0.3-1.3,1.5-1.2,1.6c-0.4-3-0.9-5.8-1.6-8.7
	c-1.2-4.3-1.7-7.9,0-12.1c1.4-3.5,3.1-6.8,1.8-10.6c-0.7-1.9-2.4-3.2-4.5-3c-2.6,0.3-3.9,2.6-5.8,4.2c-2.5,2-2.6,4.1-3.6,6.9
	c-0.2,0.8-2.3,6.5-3.6,5.5c-0.8-0.6,0.1-2.2,0.3-2.8c0.4-1,0.6-1.8,0.6-2.9c0.1-1.4,0-3.1-0.5-4.4c-0.6-1.5-2.1-1.8-3.4-2.7
	c-1.5-1-1.5-2.6-2.5-4.1c-0.6-0.9-1.4-1.4-2.3-2c-1.6-1-3.1-1.8-4.1-3.5c-1-1.8-1.4-4-3-5.5C45.5,42.2,44.8,41.9,44.1,41.7z"/>
<g>
	<g>
		<g class="st2">
			<g class="st2">
				<defs>
					<path id="SVGID_1_" class="st2" d="M1.9,97.5l95.9,0c0,0,0.4,0.4,1,1l-97.9,0C1.5,98,1.9,97.5,1.9,97.5z"/>
				</defs>
				<clipPath id="SVGID_2_">
					<use xlink:href="#SVGID_1_"  style="overflow:visible;"/>
				</clipPath>
				<g class="st3">
					<path class="st4" d="M97.9,97.5H1.9c0,0,0,0,0,0L97.9,97.5C97.9,97.6,97.9,97.5,97.9,97.5"/>
					<path class="st5" d="M97.9,97.6h-96c0,0,0,0,0,0L97.9,97.6C97.9,97.6,97.9,97.6,97.9,97.6"/>
					<path class="st6" d="M97.9,97.6h-96c0,0,0,0,0,0L97.9,97.6C97.9,97.6,97.9,97.6,97.9,97.6"/>
					<path class="st7" d="M97.9,97.6H1.9c0,0,0,0,0,0L97.9,97.6C98,97.6,98,97.6,97.9,97.6"/>
					<path class="st8" d="M98,97.6H1.8c0,0,0,0,0,0L98,97.6C98,97.6,98,97.6,98,97.6"/>
					<path class="st9" d="M98,97.7H1.8c0,0,0,0,0,0L98,97.7C98,97.7,98,97.7,98,97.7"/>
					<path class="st10" d="M98,97.7H1.8c0,0,0,0,0,0L98,97.7C98,97.7,98,97.7,98,97.7"/>
					<path class="st11" d="M98,97.7H1.8c0,0,0,0,0,0L98,97.7C98.1,97.7,98,97.7,98,97.7"/>
					<path class="st12" d="M98.1,97.7H1.7c0,0,0,0,0,0L98.1,97.7C98.1,97.8,98.1,97.7,98.1,97.7"/>
					<path class="st13" d="M98.1,97.8H1.7c0,0,0,0,0,0L98.1,97.8C98.1,97.8,98.1,97.8,98.1,97.8"/>
					<path class="st14" d="M98.1,97.8H1.7c0,0,0,0,0,0L98.1,97.8C98.2,97.8,98.2,97.8,98.1,97.8"/>
					<path class="st15" d="M98.2,97.9H1.6c0,0,0,0-0.1,0.1L98.2,97.9C98.2,97.9,98.2,97.9,98.2,97.9"/>
					<path class="st16" d="M98.2,97.9H1.6c0,0,0,0-0.1,0.1L98.2,97.9C98.3,97.9,98.3,97.9,98.2,97.9"/>
					<path class="st17" d="M98.3,98H1.5c0,0,0,0-0.1,0.1L98.3,98C98.3,98,98.3,98,98.3,98"/>
					<path class="st18" d="M98.4,98H1.4c0,0,0,0-0.1,0.1L98.4,98C98.4,98.1,98.4,98,98.4,98"/>
					<path class="st19" d="M98.4,98.1h-97c0,0,0,0-0.1,0.1L98.4,98.1C98.5,98.1,98.4,98.1,98.4,98.1"/>
					<path class="st20" d="M98.5,98.1H1.3c0,0,0,0-0.1,0.1L98.5,98.1C98.5,98.2,98.5,98.2,98.5,98.1"/>
					<path class="st21" d="M98.5,98.2H1.3c0,0,0,0-0.1,0.1L98.5,98.2C98.6,98.2,98.6,98.2,98.5,98.2"/>
					<path class="st22" d="M98.6,98.3H1.2c0,0,0,0-0.1,0.1L98.6,98.3C98.6,98.3,98.6,98.3,98.6,98.3"/>
					<path class="st23" d="M98.7,98.3H1.2c0,0,0,0-0.1,0.1L98.7,98.3C98.7,98.3,98.7,98.3,98.7,98.3"/>
					<path class="st24" d="M98.7,98.4H1.1c0,0,0,0,0,0L98.7,98.4C98.7,98.4,98.7,98.4,98.7,98.4"/>
					<path class="st25" d="M98.8,98.4H1.1c0,0,0,0,0,0L98.8,98.4C98.8,98.4,98.8,98.4,98.8,98.4"/>
					<path class="st26" d="M98.8,98.5H1c0,0,0,0,0,0L98.8,98.5C98.8,98.5,98.8,98.5,98.8,98.5"/>
					<path class="st26" d="M98.9,98.5H1c0,0,0,0,0,0L98.9,98.5C98.9,98.5,98.9,98.5,98.9,98.5"/>
				</g>
			</g>
			<g class="st2">
				<defs>
					<path id="SVGID_3_" class="st2" d="M98.9,98.5l-97.9,0c0,0,0.4-0.5,1-1l95.9,0C98.4,98.1,98.9,98.5,98.9,98.5z"/>
				</defs>
				<clipPath id="SVGID_4_">
					<use xlink:href="#SVGID_3_"  style="overflow:visible;"/>
				</clipPath>
				<g class="st27">
					<polyline class="st7" points="0.9,98.5 98.9,98.5 98.9,98.5 0.9,98.5 0.9,98.5 					"/>
					<polyline class="st8" points="0.9,98.5 98.9,98.5 98.9,98.5 0.9,98.5 0.9,98.5 					"/>
					<polyline class="st9" points="0.9,98.5 98.9,98.5 98.9,98.5 0.9,98.5 0.9,98.5 					"/>
					<polyline class="st10" points="0.9,98.5 98.9,98.5 98.9,98.5 0.9,98.5 0.9,98.5 					"/>
					<polyline class="st11" points="0.9,98.5 98.9,98.5 98.9,98.5 1,98.5 0.9,98.5 					"/>
					<polyline class="st12" points="1,98.5 98.9,98.5 98.9,98.5 1,98.5 1,98.5 					"/>
					<polyline class="st13" points="1,98.5 98.9,98.5 98.9,98.5 1,98.5 1,98.5 					"/>
					<polyline class="st14" points="1,98.5 98.9,98.5 98.9,98.5 1,98.5 1,98.5 					"/>
					<polyline class="st15" points="1,98.5 98.9,98.5 98.8,98.5 1,98.5 1,98.5 					"/>
					<polyline class="st16" points="1,98.5 98.8,98.5 98.8,98.5 1,98.5 1,98.5 					"/>
					<polyline class="st17" points="1,98.5 98.8,98.5 98.8,98.5 1,98.5 1,98.5 					"/>
					<polyline class="st18" points="1,98.5 98.8,98.5 98.8,98.5 1,98.5 1,98.5 					"/>
					<polyline class="st19" points="1,98.5 98.8,98.5 98.8,98.5 1,98.5 1,98.5 					"/>
					<path class="st20" d="M1,98.5h97.8c0,0,0,0,0,0L1,98.5C1,98.5,1,98.5,1,98.5"/>
					<path class="st21" d="M1,98.5h97.8c0,0,0,0,0,0L1,98.5C1,98.5,1,98.5,1,98.5"/>
					<path class="st22" d="M1,98.5h97.8c0,0,0,0,0,0L1,98.5C1,98.5,1,98.5,1,98.5"/>
					<path class="st23" d="M1,98.4h97.7c0,0,0,0,0,0L1,98.4C1,98.4,1,98.4,1,98.4"/>
					<path class="st24" d="M1.1,98.4h97.7c0,0,0,0,0,0L1.1,98.4C1.1,98.4,1.1,98.4,1.1,98.4"/>
					<path class="st25" d="M1.1,98.4h97.7c0,0,0,0,0,0L1.1,98.4C1.1,98.4,1.1,98.4,1.1,98.4"/>
					<path class="st26" d="M1.1,98.4h97.6c0,0,0,0,0,0L1.1,98.4C1.1,98.4,1.1,98.4,1.1,98.4"/>
					<path class="st26" d="M1.1,98.4h97.6c0,0,0,0,0,0L1.1,98.4C1.1,98.4,1.1,98.4,1.1,98.4"/>
					<path class="st1" d="M1.1,98.3h97.6c0,0,0,0,0,0L1.1,98.3C1.1,98.3,1.1,98.3,1.1,98.3"/>
					<path class="st28" d="M1.1,98.3h97.5c0,0,0,0,0,0L1.1,98.3C1.2,98.3,1.2,98.3,1.1,98.3"/>
					<path class="st29" d="M1.2,98.3h97.5c0,0,0,0,0,0L1.2,98.3C1.2,98.3,1.2,98.3,1.2,98.3"/>
					<path class="st30" d="M1.2,98.3h97.4c0,0,0,0,0,0L1.2,98.3C1.2,98.3,1.2,98.3,1.2,98.3"/>
					<path class="st31" d="M1.2,98.3h97.4c0,0,0,0,0,0L1.2,98.3C1.2,98.3,1.2,98.3,1.2,98.3"/>
					<path class="st32" d="M1.2,98.2h97.3c0,0,0,0,0,0L1.2,98.2C1.3,98.2,1.2,98.2,1.2,98.2"/>
					<path class="st33" d="M1.3,98.2h97.3c0,0,0,0,0,0L1.3,98.2C1.3,98.2,1.3,98.2,1.3,98.2"/>
					<path class="st34" d="M1.3,98.2h97.2c0,0,0,0-0.1-0.1L1.3,98.2C1.3,98.1,1.3,98.2,1.3,98.2"/>
					<path class="st35" d="M1.4,98.1h97.1c0,0-0.1-0.1-0.1-0.1H1.5C1.4,98,1.4,98.1,1.4,98.1"/>
					<path class="st34" d="M1.5,98h96.8c0,0-0.1-0.1-0.1-0.1L1.5,98C1.5,97.9,1.5,98,1.5,98"/>
					<path class="st33" d="M1.6,97.9h96.7c0,0,0,0-0.1-0.1L1.6,97.9C1.6,97.9,1.6,97.9,1.6,97.9"/>
					<path class="st32" d="M1.6,97.8h96.6c0,0,0,0-0.1-0.1L1.6,97.8C1.7,97.8,1.6,97.8,1.6,97.8"/>
					<path class="st31" d="M1.7,97.8h96.5c0,0,0,0,0,0L1.7,97.8C1.7,97.8,1.7,97.8,1.7,97.8"/>
					<path class="st30" d="M1.7,97.7h96.4c0,0,0,0,0,0L1.7,97.7C1.8,97.7,1.7,97.7,1.7,97.7"/>
					<path class="st29" d="M1.8,97.7H98c0,0,0,0,0,0L1.8,97.7C1.8,97.7,1.8,97.7,1.8,97.7"/>
					<path class="st28" d="M1.8,97.7H98c0,0,0,0,0,0L1.8,97.7C1.9,97.6,1.8,97.6,1.8,97.7"/>
					<path class="st1" d="M1.9,97.6h96.1c0,0,0,0,0,0L1.9,97.6C1.9,97.6,1.9,97.6,1.9,97.6"/>
					<path class="st26" d="M1.9,97.6h96c0,0,0,0,0,0L1.9,97.6C1.9,97.5,1.9,97.5,1.9,97.6"/>
				</g>
			</g>
			<g class="st2">
				<defs>
					<path id="SVGID_5_" class="st2" d="M97.9,97.5l0-95.9c0,0,0.4-0.5,1-1l0,97.9C98.3,98,97.9,97.5,97.9,97.5z"/>
				</defs>
				<clipPath id="SVGID_6_">
					<use xlink:href="#SVGID_5_"  style="overflow:visible;"/>
				</clipPath>
				<g class="st36">
					<polyline class="st7" points="97.9,1.7 97.9,97.5 97.9,97.5 97.9,1.7 97.9,1.7 					"/>
					<polyline class="st8" points="97.9,1.7 97.9,97.5 97.9,97.5 97.9,1.7 97.9,1.7 					"/>
					<polyline class="st9" points="97.9,1.7 97.9,97.5 97.9,97.5 97.9,1.7 97.9,1.7 					"/>
					<polyline class="st10" points="97.9,1.7 97.9,97.5 97.9,97.5 97.9,1.7 97.9,1.7 					"/>
					<polyline class="st11" points="97.9,1.7 97.9,97.5 97.9,97.5 97.9,1.7 97.9,1.7 					"/>
					<polyline class="st12" points="97.9,1.7 97.9,97.5 97.9,97.5 97.9,1.7 97.9,1.7 					"/>
					<polyline class="st13" points="97.9,1.7 97.9,97.5 97.9,97.5 97.9,1.7 97.9,1.7 					"/>
					<polyline class="st14" points="97.9,1.7 97.9,97.5 97.9,97.6 97.9,1.7 97.9,1.7 					"/>
					<polyline class="st15" points="97.9,1.7 97.9,97.6 97.9,97.6 97.9,1.7 97.9,1.7 					"/>
					<polyline class="st16" points="97.9,1.7 97.9,97.6 97.9,97.6 97.9,1.7 97.9,1.7 					"/>
					<polyline class="st17" points="97.9,1.7 97.9,97.6 97.9,97.6 97.9,1.6 97.9,1.7 					"/>
					<polyline class="st18" points="97.9,1.6 97.9,97.6 97.9,97.6 97.9,1.6 97.9,1.6 					"/>
					<polyline class="st19" points="97.9,1.6 97.9,97.6 97.9,97.6 97.9,1.6 97.9,1.6 					"/>
					<polyline class="st20" points="97.9,1.6 97.9,97.6 97.9,97.6 97.9,1.6 97.9,1.6 					"/>
					<path class="st21" d="M97.9,1.6v96c0,0,0,0,0,0L97.9,1.6C97.9,1.6,97.9,1.6,97.9,1.6"/>
					<path class="st22" d="M97.9,1.6v96c0,0,0,0,0,0L97.9,1.6C97.9,1.6,97.9,1.6,97.9,1.6"/>
					<path class="st23" d="M97.9,1.6v96c0,0,0,0,0,0L97.9,1.6C98,1.6,97.9,1.6,97.9,1.6"/>
					<path class="st24" d="M98,1.6v96c0,0,0,0,0,0L98,1.6C98,1.6,98,1.6,98,1.6"/>
					<path class="st25" d="M98,1.6v96.1c0,0,0,0,0,0L98,1.6C98,1.5,98,1.6,98,1.6"/>
					<path class="st26" d="M98,1.5v96.1c0,0,0,0,0,0L98,1.5C98,1.5,98,1.5,98,1.5"/>
					<path class="st26" d="M98,1.5v96.2c0,0,0,0,0,0L98,1.5C98,1.5,98,1.5,98,1.5"/>
					<path class="st1" d="M98,1.5v96.2c0,0,0,0,0,0L98,1.5C98,1.5,98,1.5,98,1.5"/>
					<path class="st28" d="M98.1,1.5v96.2c0,0,0,0,0,0L98.1,1.5C98.1,1.5,98.1,1.5,98.1,1.5"/>
					<path class="st29" d="M98.1,1.5v96.3c0,0,0,0,0,0L98.1,1.5C98.1,1.4,98.1,1.5,98.1,1.5"/>
					<path class="st30" d="M98.1,1.4v96.3c0,0,0,0,0,0L98.1,1.4C98.1,1.4,98.1,1.4,98.1,1.4"/>
					<path class="st31" d="M98.1,1.4v96.4c0,0,0,0,0,0L98.1,1.4C98.1,1.4,98.1,1.4,98.1,1.4"/>
					<path class="st32" d="M98.1,1.4v96.4c0,0,0,0,0,0L98.1,1.4C98.2,1.4,98.1,1.4,98.1,1.4"/>
					<path class="st33" d="M98.2,1.4v96.5c0,0,0,0,0,0L98.2,1.4C98.2,1.3,98.2,1.4,98.2,1.4"/>
					<path class="st34" d="M98.2,1.3v96.5c0,0,0,0,0,0L98.2,1.3C98.2,1.3,98.2,1.3,98.2,1.3"/>
					<path class="st35" d="M98.2,1.3v96.6c0.1,0.1,0.1,0.1,0.2,0.2v-97C98.4,1.2,98.3,1.2,98.2,1.3"/>
					<path class="st34" d="M98.4,1.1v97c0,0,0,0,0.1,0.1L98.4,1.1C98.5,1,98.5,1.1,98.4,1.1"/>
					<path class="st33" d="M98.5,1v97.1c0,0,0,0,0.1,0.1L98.5,1C98.5,1,98.5,1,98.5,1"/>
					<path class="st32" d="M98.6,1v97.3c0,0,0,0,0,0L98.6,1C98.6,0.9,98.6,1,98.6,1"/>
					<path class="st31" d="M98.6,0.9v97.4c0,0,0,0,0,0L98.6,0.9C98.6,0.9,98.6,0.9,98.6,0.9"/>
					<path class="st30" d="M98.7,0.9v97.4c0,0,0,0,0,0L98.7,0.9C98.7,0.8,98.7,0.9,98.7,0.9"/>
					<path class="st29" d="M98.7,0.8v97.5c0,0,0,0,0,0L98.7,0.8C98.7,0.8,98.7,0.8,98.7,0.8"/>
					<path class="st28" d="M98.7,0.8v97.6c0,0,0,0,0,0L98.7,0.8C98.8,0.8,98.8,0.8,98.7,0.8"/>
					<path class="st1" d="M98.8,0.7v97.7c0,0,0,0,0,0L98.8,0.7C98.8,0.7,98.8,0.7,98.8,0.7"/>
					<path class="st26" d="M98.8,0.7v97.8c0,0,0,0,0,0L98.8,0.7C98.9,0.7,98.8,0.7,98.8,0.7"/>
				</g>
			</g>
			<g class="st2">
				<defs>
					<path id="SVGID_7_" class="st2" d="M0.9,98.5l0-97.9c0,0,0.4,0.4,1,1l0,95.9C1.4,98.1,0.9,98.5,0.9,98.5z"/>
				</defs>
				<clipPath id="SVGID_8_">
					<use xlink:href="#SVGID_7_"  style="overflow:visible;"/>
				</clipPath>
				<g class="st37">
					<polyline class="st7" points="0.9,0.7 0.9,98.5 0.9,98.5 0.9,0.7 0.9,0.7 					"/>
					<polyline class="st8" points="0.9,0.7 0.9,98.5 0.9,98.5 0.9,0.7 0.9,0.7 					"/>
					<polyline class="st9" points="0.9,0.7 0.9,98.5 0.9,98.5 0.9,0.7 0.9,0.7 					"/>
					<polyline class="st10" points="0.9,0.7 0.9,98.5 0.9,98.5 0.9,0.7 0.9,0.7 					"/>
					<polyline class="st11" points="0.9,0.7 0.9,98.5 1,98.5 1,0.7 0.9,0.7 					"/>
					<polyline class="st12" points="1,0.7 1,98.5 1,98.5 1,0.7 1,0.7 					"/>
					<polyline class="st13" points="1,0.7 1,98.5 1,98.5 1,0.7 1,0.7 					"/>
					<polyline class="st14" points="1,0.7 1,98.5 1,98.5 1,0.7 1,0.7 					"/>
					<polyline class="st15" points="1,0.7 1,98.5 1,98.5 1,0.7 1,0.7 					"/>
					<polyline class="st16" points="1,0.7 1,98.5 1,98.5 1,0.7 1,0.7 					"/>
					<polyline class="st17" points="1,0.7 1,98.5 1,98.5 1,0.7 1,0.7 					"/>
					<polyline class="st18" points="1,0.7 1,98.5 1,98.5 1,0.7 1,0.7 					"/>
					<polyline class="st19" points="1,0.7 1,98.5 1,98.5 1,0.7 1,0.7 					"/>
					<polyline class="st20" points="1,0.7 1,98.5 1,98.5 1,0.7 1,0.7 					"/>
					<path class="st21" d="M1,0.7v97.8c0,0,0,0,0,0L1,0.7C1,0.7,1,0.7,1,0.7"/>
					<path class="st22" d="M1,0.7v97.7c0,0,0,0,0,0L1,0.7C1,0.7,1,0.7,1,0.7"/>
					<path class="st23" d="M1,0.7v97.7c0,0,0,0,0,0L1,0.7C1,0.8,1,0.8,1,0.7"/>
					<path class="st24" d="M1,0.8v97.7c0,0,0,0,0,0L1,0.8C1,0.8,1,0.8,1,0.8"/>
					<path class="st25" d="M1.1,0.8v97.6c0,0,0,0,0,0L1.1,0.8C1.1,0.8,1.1,0.8,1.1,0.8"/>
					<path class="st26" d="M1.1,0.8v97.6c0,0,0,0,0,0L1.1,0.8C1.1,0.8,1.1,0.8,1.1,0.8"/>
					<path class="st26" d="M1.1,0.8v97.6c0,0,0,0,0,0L1.1,0.8C1.1,0.8,1.1,0.8,1.1,0.8"/>
					<path class="st1" d="M1.1,0.8v97.5c0,0,0,0,0,0L1.1,0.8C1.1,0.9,1.1,0.8,1.1,0.8"/>
					<path class="st28" d="M1.1,0.9v97.5c0,0,0,0,0,0L1.1,0.9C1.1,0.9,1.1,0.9,1.1,0.9"/>
					<path class="st29" d="M1.2,0.9v97.4c0,0,0,0,0,0L1.2,0.9C1.2,0.9,1.2,0.9,1.2,0.9"/>
					<path class="st30" d="M1.2,0.9v97.4c0,0,0,0,0,0L1.2,0.9C1.2,0.9,1.2,0.9,1.2,0.9"/>
					<path class="st31" d="M1.2,0.9v97.4c0,0,0,0,0,0L1.2,0.9C1.2,0.9,1.2,0.9,1.2,0.9"/>
					<path class="st32" d="M1.2,0.9v97.3c0,0,0,0,0,0L1.2,0.9C1.2,1,1.2,0.9,1.2,0.9"/>
					<path class="st33" d="M1.2,1v97.3c0,0,0,0,0,0L1.2,1C1.3,1,1.3,1,1.2,1"/>
					<path class="st34" d="M1.3,1v97.2c0,0,0,0,0,0L1.3,1C1.3,1,1.3,1,1.3,1"/>
					<path class="st35" d="M1.3,1v97.1C1.4,98.1,1.5,98,1.5,98V1.2C1.5,1.2,1.4,1.1,1.3,1"/>
					<path class="st34" d="M1.5,1.2V98c0,0,0,0,0.1-0.1L1.5,1.2C1.6,1.3,1.5,1.3,1.5,1.2"/>
					<path class="st33" d="M1.6,1.3v96.6c0,0,0,0,0.1-0.1L1.6,1.3C1.6,1.3,1.6,1.3,1.6,1.3"/>
					<path class="st32" d="M1.6,1.4v96.5c0,0,0,0,0,0L1.6,1.4C1.7,1.4,1.7,1.4,1.6,1.4"/>
					<path class="st31" d="M1.7,1.4v96.4c0,0,0,0,0,0L1.7,1.4C1.7,1.4,1.7,1.4,1.7,1.4"/>
					<path class="st30" d="M1.7,1.5v96.3c0,0,0,0,0,0L1.7,1.5C1.8,1.5,1.8,1.5,1.7,1.5"/>
					<path class="st29" d="M1.8,1.5v96.2c0,0,0,0,0,0L1.8,1.5C1.8,1.5,1.8,1.5,1.8,1.5"/>
					<path class="st28" d="M1.8,1.5v96.1c0,0,0,0,0,0L1.8,1.5C1.9,1.6,1.8,1.6,1.8,1.5"/>
					<path class="st1" d="M1.9,1.6v96c0,0,0,0,0,0L1.9,1.6C1.9,1.6,1.9,1.6,1.9,1.6"/>
					<path class="st26" d="M1.9,1.6v95.9c0,0,0,0,0,0L1.9,1.6C1.9,1.7,1.9,1.6,1.9,1.6"/>
				</g>
			</g>
			<g class="st2">
				<defs>
					<path id="SVGID_9_" class="st2" d="M98.9,0.7l0,97.9c0,0-0.4-0.5-1-1l0-95.9C98.4,1.1,98.9,0.7,98.9,0.7z"/>
				</defs>
				<clipPath id="SVGID_10_">
					<use xlink:href="#SVGID_9_"  style="overflow:visible;"/>
				</clipPath>
				<g class="st38">
					<path class="st4" d="M98.9,98.5V0.7c0,0,0,0,0,0L98.9,98.5C98.8,98.5,98.9,98.5,98.9,98.5"/>
					<path class="st5" d="M98.8,98.5V0.7c0,0,0,0,0,0L98.8,98.5C98.8,98.5,98.8,98.5,98.8,98.5"/>
					<path class="st6" d="M98.8,98.5V0.7c0,0,0,0,0,0L98.8,98.5C98.8,98.5,98.8,98.5,98.8,98.5"/>
					<path class="st7" d="M98.8,98.4V0.8c0,0,0,0,0,0L98.8,98.4C98.8,98.4,98.8,98.4,98.8,98.4"/>
					<path class="st8" d="M98.8,98.4V0.8c0,0,0,0,0,0L98.8,98.4C98.7,98.4,98.8,98.4,98.8,98.4"/>
					<path class="st9" d="M98.7,98.4V0.8c0,0,0,0,0,0L98.7,98.4C98.7,98.4,98.7,98.4,98.7,98.4"/>
					<path class="st10" d="M98.7,98.4V0.8c0,0,0,0,0,0L98.7,98.4C98.7,98.4,98.7,98.4,98.7,98.4"/>
					<path class="st11" d="M98.7,98.3V0.9c0,0,0,0,0,0L98.7,98.3C98.7,98.3,98.7,98.3,98.7,98.3"/>
					<path class="st12" d="M98.6,98.3V0.9c0,0,0,0,0,0L98.6,98.3C98.6,98.3,98.6,98.3,98.6,98.3"/>
					<path class="st13" d="M98.6,98.3V0.9c0,0,0,0,0,0L98.6,98.3C98.6,98.2,98.6,98.3,98.6,98.3"/>
					<path class="st14" d="M98.6,98.2V1c0,0,0,0,0,0L98.6,98.2C98.5,98.2,98.6,98.2,98.6,98.2"/>
					<path class="st15" d="M98.5,98.2V1c0,0,0,0-0.1,0.1L98.5,98.2C98.5,98.1,98.5,98.2,98.5,98.2"/>
					<path class="st16" d="M98.5,98.1V1.1c0,0,0,0-0.1,0.1L98.5,98.1C98.4,98.1,98.4,98.1,98.5,98.1"/>
					<path class="st17" d="M98.4,98.1V1.1c0,0,0,0-0.1,0.1L98.4,98.1C98.4,98,98.4,98.1,98.4,98.1"/>
					<path class="st18" d="M98.4,98V1.2c0,0,0,0-0.1,0.1L98.4,98C98.3,98,98.3,98,98.4,98"/>
					<path class="st19" d="M98.3,98V1.2c0,0,0,0-0.1,0.1L98.3,98C98.3,97.9,98.3,97.9,98.3,98"/>
					<path class="st20" d="M98.2,97.9V1.3c0,0,0,0-0.1,0.1L98.2,97.9C98.2,97.9,98.2,97.9,98.2,97.9"/>
					<path class="st21" d="M98.2,97.8V1.4c0,0,0,0-0.1,0.1L98.2,97.8C98.1,97.8,98.2,97.8,98.2,97.8"/>
					<path class="st22" d="M98.1,97.8V1.4c0,0,0,0-0.1,0.1L98.1,97.8C98.1,97.7,98.1,97.8,98.1,97.8"/>
					<path class="st23" d="M98.1,97.7V1.5c0,0,0,0-0.1,0.1L98.1,97.7C98,97.7,98.1,97.7,98.1,97.7"/>
					<path class="st24" d="M98,97.7V1.5c0,0,0,0,0,0L98,97.7C98,97.6,98,97.7,98,97.7"/>
					<path class="st25" d="M98,97.6V1.6c0,0,0,0,0,0L98,97.6C97.9,97.6,98,97.6,98,97.6"/>
					<path class="st26" d="M97.9,97.6v-96c0,0,0,0,0,0L97.9,97.6C97.9,97.6,97.9,97.6,97.9,97.6"/>
					<path class="st26" d="M97.9,97.5V1.7c0,0,0,0,0,0L97.9,97.5C97.9,97.5,97.9,97.5,97.9,97.5"/>
				</g>
			</g>
			<g class="st2">
				<defs>
					<path id="SVGID_11_" class="st2" d="M97.9,1.7l-95.9,0c0,0-0.4-0.5-1-1l97.9,0C98.3,1.2,97.9,1.7,97.9,1.7z"/>
				</defs>
				<clipPath id="SVGID_12_">
					<use xlink:href="#SVGID_11_"  style="overflow:visible;"/>
				</clipPath>
				<g class="st39">
					<polyline class="st7" points="1.9,1.7 97.9,1.7 97.9,1.7 1.9,1.7 1.9,1.7 					"/>
					<polyline class="st8" points="1.9,1.7 97.9,1.7 97.9,1.7 1.9,1.7 1.9,1.7 					"/>
					<polyline class="st9" points="1.9,1.7 97.9,1.7 97.9,1.7 1.9,1.7 1.9,1.7 					"/>
					<polyline class="st10" points="1.9,1.7 97.9,1.7 97.9,1.7 1.9,1.7 1.9,1.7 					"/>
					<polyline class="st11" points="1.9,1.7 97.9,1.7 97.9,1.7 1.9,1.7 1.9,1.7 					"/>
					<polyline class="st12" points="1.9,1.7 97.9,1.7 97.9,1.7 1.9,1.7 1.9,1.7 					"/>
					<polyline class="st13" points="1.9,1.7 97.9,1.7 97.9,1.7 1.9,1.7 1.9,1.7 					"/>
					<polyline class="st14" points="1.9,1.7 97.9,1.7 97.9,1.7 1.9,1.7 1.9,1.7 					"/>
					<polyline class="st15" points="1.9,1.7 97.9,1.7 97.9,1.7 1.9,1.7 1.9,1.7 					"/>
					<polyline class="st16" points="1.9,1.7 97.9,1.7 97.9,1.6 1.9,1.6 1.9,1.7 					"/>
					<polyline class="st17" points="1.9,1.6 97.9,1.6 97.9,1.6 1.9,1.6 1.9,1.6 					"/>
					<polyline class="st18" points="1.9,1.6 97.9,1.6 97.9,1.6 1.9,1.6 1.9,1.6 					"/>
					<polyline class="st19" points="1.9,1.6 97.9,1.6 97.9,1.6 1.9,1.6 1.9,1.6 					"/>
					<path class="st20" d="M1.9,1.6h96c0,0,0,0,0,0L1.9,1.6C1.9,1.6,1.9,1.6,1.9,1.6"/>
					<path class="st21" d="M1.9,1.6h96c0,0,0,0,0,0L1.9,1.6C1.9,1.6,1.9,1.6,1.9,1.6"/>
					<path class="st22" d="M1.9,1.6h96.1c0,0,0,0,0,0L1.9,1.6C1.9,1.6,1.9,1.6,1.9,1.6"/>
					<path class="st23" d="M1.9,1.6H98c0,0,0,0,0,0L1.9,1.6C1.8,1.6,1.9,1.6,1.9,1.6"/>
					<path class="st24" d="M1.8,1.6H98c0,0,0,0,0,0L1.8,1.6C1.8,1.6,1.8,1.6,1.8,1.6"/>
					<path class="st25" d="M1.8,1.5H98c0,0,0,0,0,0L1.8,1.5C1.8,1.5,1.8,1.5,1.8,1.5"/>
					<path class="st26" d="M1.8,1.5H98c0,0,0,0,0,0L1.8,1.5C1.8,1.5,1.8,1.5,1.8,1.5"/>
					<path class="st26" d="M1.8,1.5H98c0,0,0,0,0,0L1.8,1.5C1.8,1.5,1.8,1.5,1.8,1.5"/>
					<path class="st1" d="M1.8,1.5H98c0,0,0,0,0,0L1.8,1.5C1.8,1.5,1.8,1.5,1.8,1.5"/>
					<path class="st28" d="M1.7,1.5h96.3c0,0,0,0,0,0L1.7,1.5C1.7,1.5,1.7,1.5,1.7,1.5"/>
					<path class="st29" d="M1.7,1.4h96.4c0,0,0,0,0,0L1.7,1.4C1.7,1.4,1.7,1.4,1.7,1.4"/>
					<path class="st30" d="M1.7,1.4h96.4c0,0,0,0,0,0L1.7,1.4C1.7,1.4,1.7,1.4,1.7,1.4"/>
					<path class="st31" d="M1.7,1.4h96.4c0,0,0,0,0,0L1.7,1.4C1.7,1.4,1.7,1.4,1.7,1.4"/>
					<path class="st32" d="M1.7,1.4h96.5c0,0,0,0,0,0L1.7,1.4C1.6,1.4,1.6,1.4,1.7,1.4"/>
					<path class="st33" d="M1.6,1.4h96.6c0,0,0,0,0,0L1.6,1.4C1.6,1.3,1.6,1.3,1.6,1.4"/>
					<path class="st34" d="M1.6,1.3h96.6c0,0,0,0,0.1-0.1L1.6,1.3C1.6,1.3,1.6,1.3,1.6,1.3"/>
					<path class="st35" d="M1.5,1.3h96.7c0,0,0.1-0.1,0.1-0.1h-97C1.4,1.2,1.5,1.2,1.5,1.3"/>
					<path class="st34" d="M1.4,1.1h97c0,0,0.1-0.1,0.1-0.1L1.4,1.1C1.3,1.1,1.4,1.1,1.4,1.1"/>
					<path class="st33" d="M1.3,1h97.2c0,0,0,0,0.1-0.1L1.3,1C1.3,1,1.3,1,1.3,1"/>
					<path class="st32" d="M1.3,1h97.3c0,0,0,0,0.1-0.1L1.3,1C1.2,0.9,1.2,1,1.3,1"/>
					<path class="st31" d="M1.2,0.9h97.4c0,0,0,0,0,0L1.2,0.9C1.2,0.9,1.2,0.9,1.2,0.9"/>
					<path class="st30" d="M1.2,0.9h97.5c0,0,0,0,0,0L1.2,0.9C1.1,0.9,1.1,0.9,1.2,0.9"/>
					<path class="st29" d="M1.1,0.8h97.6c0,0,0,0,0,0L1.1,0.8C1.1,0.8,1.1,0.8,1.1,0.8"/>
					<path class="st28" d="M1.1,0.8h97.7c0,0,0,0,0,0L1.1,0.8C1,0.8,1.1,0.8,1.1,0.8"/>
					<path class="st1" d="M1,0.7h97.8c0,0,0,0,0,0L1,0.7C1,0.7,1,0.7,1,0.7"/>
					<path class="st26" d="M1,0.7h97.9c0,0,0,0,0,0L1,0.7C1,0.7,1,0.7,1,0.7"/>
				</g>
			</g>
			<g class="st2">
				<defs>
					<path id="SVGID_13_" class="st2" d="M1.9,1.7l0,95.9c0,0-0.4,0.4-1,1l0-97.9C1.5,1.2,1.9,1.7,1.9,1.7z"/>
				</defs>
				<clipPath id="SVGID_14_">
					<use xlink:href="#SVGID_13_"  style="overflow:visible;"/>
				</clipPath>
				<g class="st40">
					<path class="st4" d="M1.9,97.5V1.7c0,0,0,0,0-0.1L1.9,97.5C1.9,97.6,1.9,97.5,1.9,97.5"/>
					<path class="st5" d="M1.9,97.6v-96c0,0,0,0,0,0L1.9,97.6C1.9,97.6,1.9,97.6,1.9,97.6"/>
					<path class="st6" d="M1.9,97.6v-96c0,0,0,0,0,0L1.9,97.6C1.9,97.6,1.9,97.6,1.9,97.6"/>
					<path class="st7" d="M1.9,97.6v-96c0,0,0,0,0,0L1.9,97.6C1.8,97.6,1.9,97.6,1.9,97.6"/>
					<path class="st8" d="M1.8,97.6V1.6c0,0,0,0,0,0L1.8,97.6C1.8,97.7,1.8,97.6,1.8,97.6"/>
					<path class="st9" d="M1.8,97.7V1.5c0,0,0,0,0,0L1.8,97.7C1.8,97.7,1.8,97.7,1.8,97.7"/>
					<path class="st10" d="M1.8,97.7V1.5c0,0,0,0,0,0L1.8,97.7C1.8,97.7,1.8,97.7,1.8,97.7"/>
					<path class="st11" d="M1.8,97.7V1.5c0,0,0,0,0,0L1.8,97.7C1.7,97.7,1.8,97.7,1.8,97.7"/>
					<path class="st12" d="M1.7,97.7V1.5c0,0,0,0,0,0L1.7,97.7C1.7,97.8,1.7,97.8,1.7,97.7"/>
					<path class="st13" d="M1.7,97.8V1.4c0,0,0,0,0,0L1.7,97.8C1.7,97.8,1.7,97.8,1.7,97.8"/>
					<path class="st14" d="M1.6,97.8V1.4c0,0,0,0,0,0L1.6,97.8C1.6,97.9,1.6,97.8,1.6,97.8"/>
					<path class="st15" d="M1.6,97.9V1.3c0,0,0,0-0.1-0.1L1.6,97.9C1.6,97.9,1.6,97.9,1.6,97.9"/>
					<path class="st16" d="M1.5,97.9V1.3c0,0,0,0-0.1-0.1L1.5,97.9C1.5,98,1.5,97.9,1.5,97.9"/>
					<path class="st17" d="M1.5,98V1.2c0,0,0,0-0.1-0.1L1.5,98C1.4,98,1.5,98,1.5,98"/>
					<path class="st18" d="M1.4,98V1.1c0,0,0,0-0.1-0.1L1.4,98C1.4,98.1,1.4,98.1,1.4,98"/>
					<path class="st19" d="M1.4,98.1v-97c0,0,0,0-0.1-0.1L1.4,98.1C1.3,98.1,1.4,98.1,1.4,98.1"/>
					<path class="st20" d="M1.3,98.2V1c0,0,0,0-0.1-0.1L1.3,98.2C1.3,98.2,1.3,98.2,1.3,98.2"/>
					<path class="st21" d="M1.3,98.2V1c0,0,0,0-0.1-0.1L1.3,98.2C1.2,98.3,1.2,98.2,1.3,98.2"/>
					<path class="st22" d="M1.2,98.3V0.9c0,0,0,0-0.1-0.1L1.2,98.3C1.2,98.3,1.2,98.3,1.2,98.3"/>
					<path class="st23" d="M1.2,98.3V0.9c0,0,0,0-0.1-0.1L1.2,98.3C1.1,98.4,1.1,98.3,1.2,98.3"/>
					<path class="st24" d="M1.1,98.4V0.8c0,0,0,0,0,0L1.1,98.4C1.1,98.4,1.1,98.4,1.1,98.4"/>
					<path class="st25" d="M1.1,98.4V0.8c0,0,0,0,0,0L1.1,98.4C1,98.5,1,98.4,1.1,98.4"/>
					<path class="st26" d="M1,98.5V0.7c0,0,0,0,0,0L1,98.5C1,98.5,1,98.5,1,98.5"/>
					<path class="st26" d="M1,98.5V0.7c0,0,0,0,0,0L1,98.5C0.9,98.5,1,98.5,1,98.5"/>
				</g>
			</g>
			<g class="st2">
				<defs>
					<path id="SVGID_15_" class="st2" d="M0.9,0.7l97.9,0c0,0-0.4,0.4-1,1l-95.9,0C1.4,1.1,0.9,0.7,0.9,0.7z"/>
				</defs>
				<clipPath id="SVGID_16_">
					<use xlink:href="#SVGID_15_"  style="overflow:visible;"/>
				</clipPath>
				<g class="st41">
					<path class="st4" d="M98.9,0.7H0.9c0,0,0,0,0,0L98.9,0.7C98.9,0.7,98.9,0.7,98.9,0.7"/>
					<path class="st5" d="M98.8,0.7H1c0,0,0,0,0,0L98.8,0.7C98.8,0.7,98.8,0.7,98.8,0.7"/>
					<path class="st6" d="M98.8,0.7H1c0,0,0,0,0,0L98.8,0.7C98.8,0.7,98.8,0.7,98.8,0.7"/>
					<path class="st7" d="M98.8,0.8H1c0,0,0,0,0,0L98.8,0.8C98.8,0.8,98.8,0.8,98.8,0.8"/>
					<path class="st8" d="M98.8,0.8H1c0,0,0,0,0,0L98.8,0.8C98.8,0.8,98.8,0.8,98.8,0.8"/>
					<path class="st9" d="M98.7,0.8H1.1c0,0,0,0,0,0L98.7,0.8C98.7,0.8,98.7,0.8,98.7,0.8"/>
					<path class="st10" d="M98.7,0.8H1.1c0,0,0,0,0,0L98.7,0.8C98.7,0.8,98.7,0.8,98.7,0.8"/>
					<path class="st11" d="M98.7,0.8H1.1c0,0,0,0,0,0L98.7,0.8C98.7,0.9,98.7,0.9,98.7,0.8"/>
					<path class="st12" d="M98.7,0.9H1.1c0,0,0,0,0,0L98.7,0.9C98.6,0.9,98.7,0.9,98.7,0.9"/>
					<path class="st13" d="M98.6,0.9H1.2c0,0,0,0,0,0L98.6,0.9C98.6,0.9,98.6,0.9,98.6,0.9"/>
					<path class="st14" d="M98.6,0.9H1.2c0,0,0,0,0,0L98.6,0.9C98.6,1,98.6,1,98.6,0.9"/>
					<path class="st15" d="M98.5,1H1.3c0,0,0,0,0.1,0.1L98.5,1C98.5,1,98.5,1,98.5,1"/>
					<path class="st16" d="M98.5,1H1.3c0,0,0,0,0.1,0.1L98.5,1C98.4,1.1,98.5,1.1,98.5,1"/>
					<path class="st17" d="M98.4,1.1h-97c0,0,0,0,0.1,0.1L98.4,1.1C98.4,1.1,98.4,1.1,98.4,1.1"/>
					<path class="st18" d="M98.4,1.2H1.4c0,0,0,0,0.1,0.1L98.4,1.2C98.3,1.2,98.3,1.2,98.4,1.2"/>
					<path class="st19" d="M98.3,1.2H1.5c0,0,0,0,0.1,0.1L98.3,1.2C98.3,1.3,98.3,1.2,98.3,1.2"/>
					<path class="st20" d="M98.2,1.3H1.6c0,0,0,0,0.1,0.1L98.2,1.3C98.2,1.3,98.2,1.3,98.2,1.3"/>
					<path class="st21" d="M98.2,1.3H1.6c0,0,0,0,0.1,0.1L98.2,1.3C98.2,1.4,98.2,1.4,98.2,1.3"/>
					<path class="st22" d="M98.1,1.4H1.7c0,0,0,0,0.1,0.1L98.1,1.4C98.1,1.4,98.1,1.4,98.1,1.4"/>
					<path class="st23" d="M98.1,1.5H1.7c0,0,0,0,0.1,0.1L98.1,1.5C98,1.5,98.1,1.5,98.1,1.5"/>
					<path class="st24" d="M98,1.5H1.8c0,0,0,0,0,0L98,1.5C98,1.5,98,1.5,98,1.5"/>
					<path class="st25" d="M98,1.6H1.8c0,0,0,0,0,0L98,1.6C97.9,1.6,98,1.6,98,1.6"/>
					<path class="st26" d="M97.9,1.6h-96c0,0,0,0,0,0L97.9,1.6C97.9,1.6,97.9,1.6,97.9,1.6"/>
					<path class="st26" d="M97.9,1.7H1.9c0,0,0,0,0,0L97.9,1.7C97.9,1.7,97.9,1.7,97.9,1.7"/>
				</g>
			</g>
			<g>
				<rect x="0.9" y="98.5" class="st42" width="97.9" height="0.1"/>
			</g>
			<g>
				<rect x="1.9" y="97.5" class="st42" width="95.9" height="0.1"/>
			</g>
			<g class="st2">
				<defs>
					<path id="SVGID_17_" class="st2" d="M97.9,97.7c0.6,0.6,1,1,1,1l-97.9,0c0,0,0.4-0.4,1-1C1.9,97.7,97.9,97.7,97.9,97.7z"/>
				</defs>
				<clipPath id="SVGID_18_">
					<use xlink:href="#SVGID_17_"  style="overflow:visible;"/>
				</clipPath>
				<g class="st43">
					<path class="st26" d="M1.9,97.7h95.9c0,0,0,0,0,0L1.9,97.7C1.9,97.7,1.9,97.7,1.9,97.7"/>
					<path class="st26" d="M1.9,97.7h95.9c0,0,0,0,0,0L1.9,97.7C1.9,97.7,1.9,97.7,1.9,97.7"/>
					<path class="st25" d="M1.9,97.8h96c0,0,0,0,0,0L1.9,97.8C1.9,97.8,1.9,97.8,1.9,97.8"/>
					<path class="st24" d="M1.8,97.8H98c0,0,0,0,0,0L1.8,97.8C1.8,97.8,1.8,97.8,1.8,97.8"/>
					<path class="st23" d="M1.8,97.9H98c0,0,0,0,0.1,0.1L1.8,97.9C1.8,97.9,1.8,97.9,1.8,97.9"/>
					<path class="st22" d="M1.7,97.9h96.3c0,0,0,0,0.1,0.1L1.7,97.9C1.7,97.9,1.7,97.9,1.7,97.9"/>
					<path class="st21" d="M1.7,98h96.5c0,0,0,0,0.1,0.1L1.7,98C1.6,98,1.7,98,1.7,98"/>
					<path class="st20" d="M1.6,98h96.6c0,0,0,0,0.1,0.1L1.6,98C1.6,98.1,1.6,98,1.6,98"/>
					<path class="st19" d="M1.6,98.1h96.7c0,0,0,0,0.1,0.1L1.6,98.1C1.5,98.1,1.5,98.1,1.6,98.1"/>
					<path class="st18" d="M1.5,98.1h96.8c0,0,0,0,0.1,0.1L1.5,98.1C1.5,98.2,1.5,98.2,1.5,98.1"/>
					<path class="st17" d="M1.4,98.2h96.9c0,0,0,0,0.1,0.1L1.4,98.2C1.4,98.2,1.4,98.2,1.4,98.2"/>
					<path class="st16" d="M1.4,98.3h97c0,0,0,0,0.1,0.1L1.4,98.3C1.3,98.3,1.4,98.3,1.4,98.3"/>
					<path class="st15" d="M1.3,98.3h97.2c0,0,0,0,0.1,0.1L1.3,98.3C1.3,98.4,1.3,98.3,1.3,98.3"/>
					<path class="st14" d="M1.3,98.4h97.3c0,0,0,0,0,0L1.3,98.4C1.2,98.4,1.3,98.4,1.3,98.4"/>
					<path class="st13" d="M1.2,98.4h97.4c0,0,0,0,0,0L1.2,98.4C1.2,98.4,1.2,98.4,1.2,98.4"/>
					<path class="st12" d="M1.2,98.5h97.4c0,0,0,0,0,0L1.2,98.5C1.2,98.5,1.2,98.5,1.2,98.5"/>
					<path class="st11" d="M1.1,98.5h97.5c0,0,0,0,0,0L1.1,98.5C1.1,98.5,1.1,98.5,1.1,98.5"/>
					<path class="st10" d="M1.1,98.5h97.6c0,0,0,0,0,0L1.1,98.5C1.1,98.5,1.1,98.5,1.1,98.5"/>
					<path class="st9" d="M1.1,98.5h97.6c0,0,0,0,0,0L1.1,98.5C1.1,98.6,1.1,98.6,1.1,98.5"/>
					<path class="st8" d="M1.1,98.6h97.7c0,0,0,0,0,0L1.1,98.6C1.1,98.6,1.1,98.6,1.1,98.6"/>
					<path class="st7" d="M1,98.6h97.7c0,0,0,0,0,0L1,98.6C1,98.6,1,98.6,1,98.6"/>
					<path class="st6" d="M1,98.6h97.8c0,0,0,0,0,0L1,98.6C1,98.6,1,98.6,1,98.6"/>
					<path class="st5" d="M1,98.6h97.8c0,0,0,0,0,0L1,98.6C1,98.6,1,98.6,1,98.6"/>
					<path class="st4" d="M1,98.6h97.8c0,0,0,0,0,0L1,98.6C0.9,98.7,1,98.7,1,98.6"/>
				</g>
			</g>
			<g class="st2">
				<defs>
					<path id="SVGID_19_" class="st2" d="M0.9,98.7c0.6-0.6,1-1,1-1h95.9c0,0,0.4,0.5,1,1C98.9,98.7,0.9,98.7,0.9,98.7z"/>
				</defs>
				<clipPath id="SVGID_20_">
					<use xlink:href="#SVGID_19_"  style="overflow:visible;"/>
				</clipPath>
				<g class="st44">
					<path class="st26" d="M98.9,98.7H0.9c0,0,0,0,0,0L98.9,98.7C98.8,98.7,98.9,98.7,98.9,98.7"/>
					<path class="st1" d="M98.8,98.7H1c0,0,0,0,0,0L98.8,98.7C98.8,98.6,98.8,98.7,98.8,98.7"/>
					<path class="st28" d="M98.8,98.6H1c0,0,0,0,0,0L98.8,98.6C98.8,98.6,98.8,98.6,98.8,98.6"/>
					<path class="st29" d="M98.7,98.6H1.1c0,0,0,0,0,0L98.7,98.6C98.7,98.5,98.7,98.6,98.7,98.6"/>
					<path class="st30" d="M98.7,98.5H1.1c0,0,0,0,0,0L98.7,98.5C98.7,98.5,98.7,98.5,98.7,98.5"/>
					<path class="st31" d="M98.6,98.5H1.2c0,0,0,0,0,0L98.6,98.5C98.6,98.4,98.6,98.5,98.6,98.5"/>
					<path class="st32" d="M98.6,98.4H1.2c0,0,0,0,0.1-0.1L98.6,98.4C98.6,98.4,98.6,98.4,98.6,98.4"/>
					<path class="st33" d="M98.5,98.4H1.3c0,0,0,0,0.1-0.1L98.5,98.4C98.5,98.3,98.5,98.4,98.5,98.4"/>
					<path class="st34" d="M98.5,98.3H1.3c0,0,0.1-0.1,0.1-0.1L98.5,98.3C98.4,98.3,98.5,98.3,98.5,98.3"/>
					<path class="st35" d="M98.4,98.2h-97c0,0,0.1-0.1,0.1-0.1h96.7C98.3,98.2,98.4,98.2,98.4,98.2"/>
					<path class="st34" d="M98.3,98.1H1.5c0,0,0,0,0.1-0.1L98.3,98.1C98.2,98.1,98.3,98.1,98.3,98.1"/>
					<path class="st33" d="M98.2,98H1.6c0,0,0,0,0,0L98.2,98C98.2,98,98.2,98,98.2,98"/>
					<path class="st32" d="M98.2,98H1.6c0,0,0,0,0,0L98.2,98C98.2,98,98.2,98,98.2,98"/>
					<path class="st31" d="M98.2,98H1.7c0,0,0,0,0,0L98.2,98C98.1,98,98.1,98,98.2,98"/>
					<path class="st30" d="M98.1,98H1.7c0,0,0,0,0,0L98.1,98C98.1,97.9,98.1,98,98.1,98"/>
					<path class="st29" d="M98.1,97.9H1.7c0,0,0,0,0,0L98.1,97.9C98.1,97.9,98.1,97.9,98.1,97.9"/>
					<path class="st28" d="M98.1,97.9H1.7c0,0,0,0,0,0L98.1,97.9C98.1,97.9,98.1,97.9,98.1,97.9"/>
					<path class="st1" d="M98.1,97.9H1.7c0,0,0,0,0,0L98.1,97.9C98.1,97.9,98.1,97.9,98.1,97.9"/>
					<path class="st26" d="M98,97.9H1.8c0,0,0,0,0,0L98,97.9C98,97.9,98,97.9,98,97.9"/>
					<path class="st26" d="M98,97.9H1.8c0,0,0,0,0,0L98,97.9C98,97.8,98,97.9,98,97.9"/>
					<path class="st25" d="M98,97.8H1.8c0,0,0,0,0,0L98,97.8C98,97.8,98,97.8,98,97.8"/>
					<path class="st24" d="M98,97.8H1.8c0,0,0,0,0,0L98,97.8C98,97.8,98,97.8,98,97.8"/>
					<path class="st23" d="M98,97.8H1.8c0,0,0,0,0,0L98,97.8C98,97.8,98,97.8,98,97.8"/>
					<path class="st22" d="M98,97.8H1.9c0,0,0,0,0,0L98,97.8C97.9,97.8,97.9,97.8,98,97.8"/>
					<path class="st21" d="M97.9,97.8H1.9c0,0,0,0,0,0L97.9,97.8C97.9,97.8,97.9,97.8,97.9,97.8"/>
					<path class="st20" d="M97.9,97.7h-96c0,0,0,0,0,0L97.9,97.7C97.9,97.7,97.9,97.7,97.9,97.7"/>
					<polyline class="st19" points="97.9,97.7 1.9,97.7 1.9,97.7 97.9,97.7 97.9,97.7 					"/>
					<polyline class="st18" points="97.9,97.7 1.9,97.7 1.9,97.7 97.9,97.7 97.9,97.7 					"/>
					<polyline class="st17" points="97.9,97.7 1.9,97.7 1.9,97.7 97.9,97.7 97.9,97.7 					"/>
					<polyline class="st16" points="97.9,97.7 1.9,97.7 1.9,97.7 97.9,97.7 97.9,97.7 					"/>
					<polyline class="st15" points="97.9,97.7 1.9,97.7 1.9,97.7 97.9,97.7 97.9,97.7 					"/>
					<polyline class="st14" points="97.9,97.7 1.9,97.7 1.9,97.7 97.9,97.7 97.9,97.7 					"/>
					<polyline class="st13" points="97.9,97.7 1.9,97.7 1.9,97.7 97.9,97.7 97.9,97.7 					"/>
					<polyline class="st12" points="97.9,97.7 1.9,97.7 1.9,97.7 97.9,97.7 97.9,97.7 					"/>
					<polyline class="st11" points="97.9,97.7 1.9,97.7 1.9,97.7 97.9,97.7 97.9,97.7 					"/>
					<polyline class="st10" points="97.9,97.7 1.9,97.7 1.9,97.7 97.9,97.7 97.9,97.7 					"/>
					<polyline class="st9" points="97.9,97.7 1.9,97.7 1.9,97.7 97.9,97.7 97.9,97.7 					"/>
					<polyline class="st8" points="97.9,97.7 1.9,97.7 1.9,97.7 97.9,97.7 97.9,97.7 					"/>
					<polyline class="st7" points="97.9,97.7 1.9,97.7 1.9,97.7 97.9,97.7 97.9,97.7 					"/>
				</g>
			</g>
			<g>
				<rect x="0.9" y="0.7" class="st42" width="97.9" height="0.1"/>
			</g>
			<g class="st2">
				<defs>
					<path id="SVGID_21_" class="st2" d="M97.9,1.8c0.6-0.6,1-1,1-1l0,97.9c0,0-0.4-0.4-1-1C97.9,97.7,97.9,1.8,97.9,1.8z"/>
				</defs>
				<clipPath id="SVGID_22_">
					<use xlink:href="#SVGID_21_"  style="overflow:visible;"/>
				</clipPath>
				<g class="st45">
					<path class="st26" d="M97.9,97.7V1.8c0,0,0,0,0,0L97.9,97.7C97.9,97.7,97.9,97.7,97.9,97.7"/>
					<path class="st1" d="M97.9,97.7V1.8c0,0,0,0,0,0L97.9,97.7C97.9,97.8,97.9,97.7,97.9,97.7"/>
					<path class="st28" d="M97.9,97.8v-96c0,0,0,0,0,0L97.9,97.8C98,97.8,98,97.8,97.9,97.8"/>
					<path class="st29" d="M98,97.8V1.7c0,0,0,0,0,0L98,97.8C98,97.9,98,97.8,98,97.8"/>
					<path class="st30" d="M98,97.9V1.7c0,0,0,0,0,0L98,97.9C98.1,97.9,98,97.9,98,97.9"/>
					<path class="st31" d="M98.1,97.9V1.6c0,0,0,0,0,0L98.1,97.9C98.1,97.9,98.1,97.9,98.1,97.9"/>
					<path class="st32" d="M98.1,98V1.6c0,0,0,0,0,0L98.1,98C98.2,98,98.1,98,98.1,98"/>
					<path class="st33" d="M98.2,98V1.5c0,0,0,0,0.1-0.1L98.2,98C98.2,98,98.2,98,98.2,98"/>
					<path class="st34" d="M98.2,98.1V1.5c0,0,0,0,0.1-0.1L98.2,98.1C98.3,98.1,98.2,98.1,98.2,98.1"/>
					<path class="st35" d="M98.3,98.1V1.4c0.1-0.1,0.1-0.1,0.2-0.2v97.1C98.4,98.3,98.4,98.2,98.3,98.1"/>
					<path class="st34" d="M98.5,98.3V1.2c0,0,0,0,0,0L98.5,98.3C98.5,98.3,98.5,98.3,98.5,98.3"/>
					<path class="st33" d="M98.5,98.4V1.2c0,0,0,0,0,0L98.5,98.4C98.6,98.4,98.5,98.4,98.5,98.4"/>
					<path class="st32" d="M98.6,98.4V1.1c0,0,0,0,0,0L98.6,98.4C98.6,98.4,98.6,98.4,98.6,98.4"/>
					<path class="st31" d="M98.6,98.4V1.1c0,0,0,0,0,0L98.6,98.4C98.6,98.4,98.6,98.4,98.6,98.4"/>
					<path class="st30" d="M98.6,98.4V1.1c0,0,0,0,0,0L98.6,98.4C98.6,98.5,98.6,98.5,98.6,98.4"/>
					<path class="st29" d="M98.6,98.5V1.1c0,0,0,0,0,0L98.6,98.5C98.7,98.5,98.6,98.5,98.6,98.5"/>
					<path class="st28" d="M98.7,98.5V1c0,0,0,0,0,0L98.7,98.5C98.7,98.5,98.7,98.5,98.7,98.5"/>
					<path class="st1" d="M98.7,98.5V1c0,0,0,0,0,0L98.7,98.5C98.7,98.5,98.7,98.5,98.7,98.5"/>
					<path class="st26" d="M98.7,98.5V1c0,0,0,0,0,0L98.7,98.5C98.7,98.5,98.7,98.5,98.7,98.5"/>
					<path class="st26" d="M98.7,98.5V1c0,0,0,0,0,0L98.7,98.5C98.7,98.6,98.7,98.6,98.7,98.5"/>
					<path class="st25" d="M98.7,98.6V1c0,0,0,0,0,0L98.7,98.6C98.8,98.6,98.7,98.6,98.7,98.6"/>
					<path class="st24" d="M98.8,98.6V0.9c0,0,0,0,0,0L98.8,98.6C98.8,98.6,98.8,98.6,98.8,98.6"/>
					<path class="st23" d="M98.8,98.6V0.9c0,0,0,0,0,0L98.8,98.6C98.8,98.6,98.8,98.6,98.8,98.6"/>
					<path class="st22" d="M98.8,98.6V0.9c0,0,0,0,0,0L98.8,98.6C98.8,98.6,98.8,98.6,98.8,98.6"/>
					<path class="st21" d="M98.8,98.6V0.9c0,0,0,0,0,0L98.8,98.6C98.8,98.6,98.8,98.6,98.8,98.6"/>
					<polyline class="st20" points="98.8,98.6 98.8,0.9 98.8,0.9 98.8,98.7 98.8,98.6 					"/>
					<polyline class="st19" points="98.8,98.7 98.8,0.9 98.8,0.9 98.8,98.7 98.8,98.7 					"/>
					<polyline class="st18" points="98.8,98.7 98.8,0.9 98.8,0.9 98.8,98.7 98.8,98.7 					"/>
					<polyline class="st17" points="98.8,98.7 98.8,0.9 98.8,0.8 98.8,98.7 98.8,98.7 					"/>
					<polyline class="st16" points="98.8,98.7 98.8,0.8 98.9,0.8 98.9,98.7 98.8,98.7 					"/>
					<polyline class="st15" points="98.9,98.7 98.9,0.8 98.9,0.8 98.9,98.7 98.9,98.7 					"/>
					<polyline class="st14" points="98.9,98.7 98.9,0.8 98.9,0.8 98.9,98.7 98.9,98.7 					"/>
					<polyline class="st13" points="98.9,98.7 98.9,0.8 98.9,0.8 98.9,98.7 98.9,98.7 					"/>
					<polyline class="st12" points="98.9,98.7 98.9,0.8 98.9,0.8 98.9,98.7 98.9,98.7 					"/>
					<polyline class="st11" points="98.9,98.7 98.9,0.8 98.9,0.8 98.9,98.7 98.9,98.7 					"/>
					<polyline class="st10" points="98.9,98.7 98.9,0.8 98.9,0.8 98.9,98.7 98.9,98.7 					"/>
					<polyline class="st9" points="98.9,98.7 98.9,0.8 98.9,0.8 98.9,98.7 98.9,98.7 					"/>
					<polyline class="st8" points="98.9,98.7 98.9,0.8 98.9,0.8 98.9,98.7 98.9,98.7 					"/>
					<polyline class="st7" points="98.9,98.7 98.9,0.8 98.9,0.8 98.9,98.7 98.9,98.7 					"/>
				</g>
			</g>
			<g class="st2">
				<defs>
					<path id="SVGID_23_" class="st2" d="M98.9,98.7c-0.6-0.6-1-1-1-1l0-95.9c0,0,0.4-0.4,1-1C98.9,0.8,98.9,98.7,98.9,98.7z"/>
				</defs>
				<clipPath id="SVGID_24_">
					<use xlink:href="#SVGID_23_"  style="overflow:visible;"/>
				</clipPath>
				<g class="st46">
					<path class="st26" d="M98.9,0.8v97.9c0,0,0,0,0,0L98.9,0.8C98.9,0.8,98.9,0.8,98.9,0.8"/>
					<path class="st26" d="M98.9,0.9v97.8c0,0,0,0,0,0L98.9,0.9C98.8,0.9,98.8,0.9,98.9,0.9"/>
					<path class="st25" d="M98.8,0.9v97.7c0,0,0,0,0,0L98.8,0.9C98.8,0.9,98.8,0.9,98.8,0.9"/>
					<path class="st24" d="M98.8,0.9v97.6c0,0,0,0,0,0L98.8,0.9C98.7,1,98.7,1,98.8,0.9"/>
					<path class="st23" d="M98.7,1v97.6c0,0,0,0-0.1-0.1L98.7,1C98.7,1,98.7,1,98.7,1"/>
					<path class="st22" d="M98.7,1v97.5c0,0,0,0-0.1-0.1L98.7,1C98.6,1.1,98.6,1.1,98.7,1"/>
					<path class="st21" d="M98.6,1.1v97.3c0,0,0,0-0.1-0.1L98.6,1.1C98.6,1.1,98.6,1.1,98.6,1.1"/>
					<path class="st20" d="M98.6,1.1v97.2c0,0,0,0-0.1-0.1L98.6,1.1C98.5,1.2,98.5,1.2,98.6,1.1"/>
					<path class="st19" d="M98.5,1.2v97.1c0,0,0,0-0.1-0.1L98.5,1.2C98.5,1.2,98.5,1.2,98.5,1.2"/>
					<path class="st18" d="M98.4,1.3v97c0,0,0,0-0.1-0.1L98.4,1.3C98.4,1.3,98.4,1.3,98.4,1.3"/>
					<path class="st17" d="M98.4,1.3v96.9c0,0,0,0-0.1-0.1L98.4,1.3C98.3,1.4,98.4,1.3,98.4,1.3"/>
					<path class="st16" d="M98.3,1.4v96.8c0,0,0,0-0.1-0.1L98.3,1.4C98.3,1.4,98.3,1.4,98.3,1.4"/>
					<path class="st15" d="M98.3,1.4v96.7c0,0,0,0-0.1-0.1L98.3,1.4C98.2,1.5,98.2,1.5,98.3,1.4"/>
					<path class="st14" d="M98.2,1.5V98c0,0,0,0,0,0L98.2,1.5C98.2,1.5,98.2,1.5,98.2,1.5"/>
					<path class="st13" d="M98.2,1.5V98c0,0,0,0,0,0L98.2,1.5C98.1,1.6,98.1,1.6,98.2,1.5"/>
					<path class="st12" d="M98.1,1.6V98c0,0,0,0,0,0L98.1,1.6C98.1,1.6,98.1,1.6,98.1,1.6"/>
					<path class="st11" d="M98.1,1.6v96.3c0,0,0,0,0,0L98.1,1.6C98.1,1.6,98.1,1.6,98.1,1.6"/>
					<path class="st10" d="M98.1,1.6v96.2c0,0,0,0,0,0L98.1,1.6C98,1.7,98,1.7,98.1,1.6"/>
					<path class="st9" d="M98,1.7v96.2c0,0,0,0,0,0L98,1.7C98,1.7,98,1.7,98,1.7"/>
					<path class="st8" d="M98,1.7v96.1c0,0,0,0,0,0L98,1.7C98,1.7,98,1.7,98,1.7"/>
					<path class="st7" d="M98,1.7v96.1c0,0,0,0,0,0L98,1.7C98,1.7,98,1.7,98,1.7"/>
					<path class="st6" d="M98,1.7v96c0,0,0,0,0,0L98,1.7C97.9,1.8,97.9,1.8,98,1.7"/>
					<path class="st5" d="M97.9,1.8v96c0,0,0,0,0,0L97.9,1.8C97.9,1.8,97.9,1.8,97.9,1.8"/>
					<path class="st4" d="M97.9,1.8v96c0,0,0,0,0-0.1L97.9,1.8C97.9,1.8,97.9,1.8,97.9,1.8"/>
				</g>
			</g>
			<g class="st2">
				<defs>
					<path id="SVGID_25_" class="st2" d="M1.9,1.8c-0.6-0.6-1-1-1-1l97.9,0c0,0-0.4,0.5-1,1C97.9,1.8,1.9,1.8,1.9,1.8z"/>
				</defs>
				<clipPath id="SVGID_26_">
					<use xlink:href="#SVGID_25_"  style="overflow:visible;"/>
				</clipPath>
				<g class="st47">
					<path class="st26" d="M97.9,1.8H1.9c0,0,0,0,0,0L97.9,1.8C97.9,1.8,97.9,1.8,97.9,1.8"/>
					<path class="st1" d="M97.9,1.8h-96c0,0,0,0,0,0L97.9,1.8C97.9,1.8,97.9,1.8,97.9,1.8"/>
					<path class="st28" d="M97.9,1.8H1.9c0,0,0,0,0,0L97.9,1.8C98,1.7,98,1.7,97.9,1.8"/>
					<path class="st29" d="M98,1.7H1.8c0,0,0,0,0,0L98,1.7C98,1.7,98,1.7,98,1.7"/>
					<path class="st30" d="M98,1.7H1.8c0,0,0,0,0,0L98,1.7C98.1,1.6,98.1,1.7,98,1.7"/>
					<path class="st31" d="M98.1,1.6H1.7c0,0,0,0,0,0L98.1,1.6C98.1,1.6,98.1,1.6,98.1,1.6"/>
					<path class="st32" d="M98.1,1.6H1.7c0,0,0,0-0.1-0.1L98.1,1.6C98.2,1.5,98.1,1.6,98.1,1.6"/>
					<path class="st33" d="M98.2,1.5H1.6c0,0,0,0-0.1-0.1L98.2,1.5C98.2,1.5,98.2,1.5,98.2,1.5"/>
					<path class="st34" d="M98.2,1.5H1.6c0,0-0.1-0.1-0.1-0.1L98.2,1.5C98.3,1.4,98.3,1.4,98.2,1.5"/>
					<path class="st35" d="M98.3,1.4H1.5c0,0-0.1-0.1-0.1-0.1h97.1C98.4,1.3,98.4,1.3,98.3,1.4"/>
					<path class="st34" d="M98.5,1.2H1.4c0,0,0,0-0.1-0.1L98.5,1.2C98.5,1.2,98.5,1.2,98.5,1.2"/>
					<path class="st33" d="M98.5,1.2H1.3c0,0,0,0,0,0L98.5,1.2C98.5,1.2,98.5,1.2,98.5,1.2"/>
					<path class="st32" d="M98.5,1.2H1.3c0,0,0,0,0,0L98.5,1.2C98.6,1.1,98.6,1.1,98.5,1.2"/>
					<path class="st31" d="M98.6,1.1H1.2c0,0,0,0,0,0L98.6,1.1C98.6,1.1,98.6,1.1,98.6,1.1"/>
					<path class="st30" d="M98.6,1.1H1.2c0,0,0,0,0,0L98.6,1.1C98.6,1.1,98.6,1.1,98.6,1.1"/>
					<path class="st29" d="M98.6,1.1H1.2c0,0,0,0,0,0L98.6,1.1C98.6,1.1,98.6,1.1,98.6,1.1"/>
					<path class="st28" d="M98.6,1.1H1.2c0,0,0,0,0,0L98.6,1.1C98.7,1,98.7,1,98.6,1.1"/>
					<path class="st1" d="M98.7,1H1.1c0,0,0,0,0,0L98.7,1C98.7,1,98.7,1,98.7,1"/>
					<path class="st26" d="M98.7,1H1.1c0,0,0,0,0,0L98.7,1C98.7,1,98.7,1,98.7,1"/>
					<path class="st26" d="M98.7,1H1.1c0,0,0,0,0,0L98.7,1C98.7,1,98.7,1,98.7,1"/>
					<path class="st25" d="M98.7,1H1.1c0,0,0,0,0,0L98.7,1C98.7,1,98.7,1,98.7,1"/>
					<path class="st24" d="M98.7,1H1.1c0,0,0,0,0,0L98.7,1C98.8,0.9,98.7,0.9,98.7,1"/>
					<path class="st23" d="M98.8,0.9H1.1c0,0,0,0,0,0L98.8,0.9C98.8,0.9,98.8,0.9,98.8,0.9"/>
					<path class="st22" d="M98.8,0.9H1c0,0,0,0,0,0L98.8,0.9C98.8,0.9,98.8,0.9,98.8,0.9"/>
					<path class="st21" d="M98.8,0.9H1c0,0,0,0,0,0L98.8,0.9C98.8,0.9,98.8,0.9,98.8,0.9"/>
					<path class="st20" d="M98.8,0.9H1c0,0,0,0,0,0L98.8,0.9C98.8,0.9,98.8,0.9,98.8,0.9"/>
					<polyline class="st19" points="98.8,0.9 1,0.9 1,0.9 98.8,0.9 98.8,0.9 					"/>
					<polyline class="st18" points="98.8,0.9 1,0.9 1,0.9 98.8,0.9 98.8,0.9 					"/>
					<polyline class="st17" points="98.8,0.9 1,0.9 1,0.9 98.8,0.9 98.8,0.9 					"/>
					<polyline class="st16" points="98.8,0.9 1,0.9 1,0.8 98.8,0.8 98.8,0.9 					"/>
					<polyline class="st15" points="98.8,0.8 1,0.8 1,0.8 98.9,0.8 98.8,0.8 					"/>
					<polyline class="st14" points="98.9,0.8 1,0.8 1,0.8 98.9,0.8 98.9,0.8 					"/>
					<polyline class="st13" points="98.9,0.8 1,0.8 1,0.8 98.9,0.8 98.9,0.8 					"/>
					<polyline class="st12" points="98.9,0.8 1,0.8 1,0.8 98.9,0.8 98.9,0.8 					"/>
					<polyline class="st11" points="98.9,0.8 1,0.8 0.9,0.8 98.9,0.8 98.9,0.8 					"/>
					<polyline class="st10" points="98.9,0.8 0.9,0.8 0.9,0.8 98.9,0.8 98.9,0.8 					"/>
					<polyline class="st9" points="98.9,0.8 0.9,0.8 0.9,0.8 98.9,0.8 98.9,0.8 					"/>
					<polyline class="st8" points="98.9,0.8 0.9,0.8 0.9,0.8 98.9,0.8 98.9,0.8 					"/>
					<polyline class="st7" points="98.9,0.8 0.9,0.8 0.9,0.8 98.9,0.8 98.9,0.8 					"/>
				</g>
			</g>
			<g class="st2">
				<defs>
					<path id="SVGID_27_" class="st2" d="M0.9,0.8c0.6,0.6,1,1,1,1l0,95.9c0,0-0.4,0.5-1,1C0.9,98.7,0.9,0.8,0.9,0.8z"/>
				</defs>
				<clipPath id="SVGID_28_">
					<use xlink:href="#SVGID_27_"  style="overflow:visible;"/>
				</clipPath>
				<g class="st48">
					<path class="st26" d="M0.9,98.7V0.8c0,0,0,0,0,0L0.9,98.7C1,98.7,1,98.7,0.9,98.7"/>
					<path class="st1" d="M1,98.7V0.9c0,0,0,0,0,0L1,98.7C1,98.6,1,98.7,1,98.7"/>
					<path class="st28" d="M1,98.6V0.9c0,0,0,0,0,0L1,98.6C1.1,98.6,1,98.6,1,98.6"/>
					<path class="st29" d="M1.1,98.6V1c0,0,0,0,0,0L1.1,98.6C1.1,98.5,1.1,98.6,1.1,98.6"/>
					<path class="st30" d="M1.1,98.5V1c0,0,0,0,0,0L1.1,98.5C1.1,98.5,1.1,98.5,1.1,98.5"/>
					<path class="st31" d="M1.2,98.5V1c0,0,0,0,0,0L1.2,98.5C1.2,98.5,1.2,98.5,1.2,98.5"/>
					<path class="st32" d="M1.2,98.4V1.1c0,0,0,0,0,0L1.2,98.4C1.2,98.4,1.2,98.4,1.2,98.4"/>
					<path class="st33" d="M1.2,98.4V1.1c0,0,0,0,0.1,0.1L1.2,98.4C1.3,98.4,1.3,98.4,1.2,98.4"/>
					<path class="st34" d="M1.3,98.3V1.2c0,0,0,0,0.1,0.1L1.3,98.3C1.3,98.3,1.3,98.3,1.3,98.3"/>
					<path class="st35" d="M1.4,98.3v-97c0.1,0.1,0.1,0.1,0.2,0.2v96.6C1.5,98.1,1.4,98.2,1.4,98.3"/>
					<path class="st34" d="M1.6,98.1V1.5c0,0,0,0,0,0L1.6,98.1C1.6,98,1.6,98.1,1.6,98.1"/>
					<path class="st33" d="M1.6,98V1.5c0,0,0,0,0,0L1.6,98C1.6,98,1.6,98,1.6,98"/>
					<path class="st32" d="M1.6,98V1.5c0,0,0,0,0,0L1.6,98C1.7,98,1.7,98,1.6,98"/>
					<path class="st31" d="M1.7,98V1.6c0,0,0,0,0,0L1.7,98C1.7,98,1.7,98,1.7,98"/>
					<path class="st30" d="M1.7,97.9V1.6c0,0,0,0,0,0L1.7,97.9C1.7,97.9,1.7,97.9,1.7,97.9"/>
					<path class="st29" d="M1.7,97.9V1.6c0,0,0,0,0,0L1.7,97.9C1.7,97.9,1.7,97.9,1.7,97.9"/>
					<path class="st28" d="M1.7,97.9V1.6c0,0,0,0,0,0L1.7,97.9C1.8,97.9,1.7,97.9,1.7,97.9"/>
					<path class="st1" d="M1.8,97.9V1.6c0,0,0,0,0,0L1.8,97.9C1.8,97.9,1.8,97.9,1.8,97.9"/>
					<path class="st26" d="M1.8,97.9V1.7c0,0,0,0,0,0L1.8,97.9C1.8,97.8,1.8,97.9,1.8,97.9"/>
					<path class="st26" d="M1.8,97.8V1.7c0,0,0,0,0,0L1.8,97.8C1.8,97.8,1.8,97.8,1.8,97.8"/>
					<path class="st25" d="M1.8,97.8V1.7c0,0,0,0,0,0L1.8,97.8C1.8,97.8,1.8,97.8,1.8,97.8"/>
					<path class="st24" d="M1.8,97.8V1.7c0,0,0,0,0,0L1.8,97.8C1.8,97.8,1.8,97.8,1.8,97.8"/>
					<path class="st23" d="M1.9,97.8v-96c0,0,0,0,0,0L1.9,97.8C1.9,97.8,1.9,97.8,1.9,97.8"/>
					<path class="st22" d="M1.9,97.8v-96c0,0,0,0,0,0L1.9,97.8C1.9,97.8,1.9,97.8,1.9,97.8"/>
					<path class="st21" d="M1.9,97.7v-96c0,0,0,0,0,0L1.9,97.7C1.9,97.7,1.9,97.7,1.9,97.7"/>
					<polyline class="st20" points="1.9,97.7 1.9,1.8 1.9,1.8 1.9,97.7 1.9,97.7 					"/>
					<polyline class="st19" points="1.9,97.7 1.9,1.8 1.9,1.8 1.9,97.7 1.9,97.7 					"/>
					<polyline class="st18" points="1.9,97.7 1.9,1.8 1.9,1.8 1.9,97.7 1.9,97.7 					"/>
					<polyline class="st17" points="1.9,97.7 1.9,1.8 1.9,1.8 1.9,97.7 1.9,97.7 					"/>
					<polyline class="st16" points="1.9,97.7 1.9,1.8 1.9,1.8 1.9,97.7 1.9,97.7 					"/>
					<polyline class="st15" points="1.9,97.7 1.9,1.8 1.9,1.8 1.9,97.7 1.9,97.7 					"/>
					<polyline class="st14" points="1.9,97.7 1.9,1.8 1.9,1.8 1.9,97.7 1.9,97.7 					"/>
					<polyline class="st13" points="1.9,97.7 1.9,1.8 1.9,1.8 1.9,97.7 1.9,97.7 					"/>
					<polyline class="st12" points="1.9,97.7 1.9,1.8 1.9,1.8 1.9,97.7 1.9,97.7 					"/>
					<polyline class="st11" points="1.9,97.7 1.9,1.8 1.9,1.8 1.9,97.7 1.9,97.7 					"/>
					<polyline class="st10" points="1.9,97.7 1.9,1.8 1.9,1.8 1.9,97.7 1.9,97.7 					"/>
					<polyline class="st9" points="1.9,97.7 1.9,1.8 1.9,1.8 1.9,97.7 1.9,97.7 					"/>
					<polyline class="st8" points="1.9,97.7 1.9,1.8 1.9,1.8 1.9,97.7 1.9,97.7 					"/>
					<polyline class="st7" points="1.9,97.7 1.9,1.8 1.9,1.8 1.9,97.7 1.9,97.7 					"/>
				</g>
			</g>
			<g class="st2">
				<defs>
					<path id="SVGID_29_" class="st2" d="M1.9,97.7c-0.6,0.6-1,1-1,1l0-97.9c0,0,0.4,0.5,1,1C1.9,1.8,1.9,97.7,1.9,97.7z"/>
				</defs>
				<clipPath id="SVGID_30_">
					<use xlink:href="#SVGID_29_"  style="overflow:visible;"/>
				</clipPath>
				<g class="st49">
					<path class="st26" d="M1.9,1.8v95.9c0,0,0,0,0,0L1.9,1.8C1.9,1.8,1.9,1.8,1.9,1.8"/>
					<path class="st26" d="M1.9,1.8v95.9c0,0,0,0,0,0L1.9,1.8C1.9,1.8,1.9,1.8,1.9,1.8"/>
					<path class="st25" d="M1.9,1.8v96c0,0,0,0,0,0L1.9,1.8C1.9,1.7,1.9,1.8,1.9,1.8"/>
					<path class="st24" d="M1.8,1.7v96.1c0,0,0,0,0,0L1.8,1.7C1.8,1.7,1.8,1.7,1.8,1.7"/>
					<path class="st23" d="M1.8,1.7v96.2c0,0,0,0-0.1,0.1L1.8,1.7C1.8,1.6,1.8,1.7,1.8,1.7"/>
					<path class="st22" d="M1.7,1.6v96.3c0,0,0,0-0.1,0.1L1.7,1.6C1.7,1.6,1.7,1.6,1.7,1.6"/>
					<path class="st21" d="M1.7,1.6V98c0,0,0,0-0.1,0.1L1.7,1.6C1.7,1.5,1.7,1.6,1.7,1.6"/>
					<path class="st20" d="M1.6,1.5V98c0,0,0,0-0.1,0.1L1.6,1.5C1.6,1.5,1.6,1.5,1.6,1.5"/>
					<path class="st19" d="M1.6,1.5v96.6c0,0,0,0-0.1,0.1L1.6,1.5C1.5,1.4,1.6,1.5,1.6,1.5"/>
					<path class="st18" d="M1.5,1.4v96.7c0,0,0,0-0.1,0.1L1.5,1.4C1.5,1.4,1.5,1.4,1.5,1.4"/>
					<path class="st17" d="M1.5,1.4v96.8c0,0,0,0-0.1,0.1L1.5,1.4C1.4,1.3,1.4,1.3,1.5,1.4"/>
					<path class="st16" d="M1.4,1.3v96.9c0,0,0,0-0.1,0.1L1.4,1.3C1.4,1.3,1.4,1.3,1.4,1.3"/>
					<path class="st15" d="M1.3,1.2v97.1c0,0,0,0-0.1,0.1L1.3,1.2C1.3,1.2,1.3,1.2,1.3,1.2"/>
					<path class="st14" d="M1.3,1.2v97.2c0,0,0,0,0,0L1.3,1.2C1.3,1.1,1.3,1.2,1.3,1.2"/>
					<path class="st13" d="M1.2,1.1v97.3c0,0,0,0,0,0L1.2,1.1C1.2,1.1,1.2,1.1,1.2,1.1"/>
					<path class="st12" d="M1.2,1.1v97.4c0,0,0,0,0,0L1.2,1.1C1.2,1.1,1.2,1.1,1.2,1.1"/>
					<path class="st11" d="M1.2,1.1v97.4c0,0,0,0,0,0L1.2,1.1C1.1,1,1.2,1,1.2,1.1"/>
					<path class="st10" d="M1.1,1v97.5c0,0,0,0,0,0L1.1,1C1.1,1,1.1,1,1.1,1"/>
					<path class="st9" d="M1.1,1v97.6c0,0,0,0,0,0L1.1,1C1.1,1,1.1,1,1.1,1"/>
					<path class="st8" d="M1.1,1v97.6c0,0,0,0,0,0L1.1,1C1.1,0.9,1.1,1,1.1,1"/>
					<path class="st7" d="M1.1,0.9v97.6c0,0,0,0,0,0L1.1,0.9C1,0.9,1,0.9,1.1,0.9"/>
					<path class="st6" d="M1,0.9v97.7c0,0,0,0,0,0L1,0.9C1,0.9,1,0.9,1,0.9"/>
					<path class="st5" d="M1,0.9v97.7c0,0,0,0,0,0L1,0.9C1,0.9,1,0.9,1,0.9"/>
					<path class="st4" d="M1,0.9v97.8c0,0,0,0,0,0L1,0.9C0.9,0.8,1,0.8,1,0.9"/>
				</g>
			</g>
			<g class="st2">
				<defs>
					<path id="SVGID_31_" class="st2" d="M98.9,0.8c-0.6,0.6-1,1-1,1l-95.9,0c0,0-0.4-0.4-1-1C0.9,0.8,98.9,0.8,98.9,0.8z"/>
				</defs>
				<clipPath id="SVGID_32_">
					<use xlink:href="#SVGID_31_"  style="overflow:visible;"/>
				</clipPath>
				<g class="st50">
					<path class="st26" d="M0.9,0.8h97.9c0,0,0,0,0,0L0.9,0.8C1,0.8,0.9,0.8,0.9,0.8"/>
					<path class="st26" d="M1,0.9h97.9c0,0,0,0,0,0L1,0.9C1,0.9,1,0.9,1,0.9"/>
					<path class="st25" d="M1,0.9h97.8c0,0,0,0,0,0L1,0.9C1,0.9,1,0.9,1,0.9"/>
					<path class="st24" d="M1.1,0.9h97.7c0,0,0,0,0,0L1.1,0.9C1.1,1,1.1,1,1.1,0.9"/>
					<path class="st23" d="M1.1,1h97.6c0,0,0,0-0.1,0.1L1.1,1C1.1,1,1.1,1,1.1,1"/>
					<path class="st22" d="M1.2,1.1h97.5c0,0,0,0-0.1,0.1L1.2,1.1C1.2,1.1,1.2,1.1,1.2,1.1"/>
					<path class="st21" d="M1.2,1.1h97.4c0,0,0,0-0.1,0.1L1.2,1.1C1.2,1.1,1.2,1.1,1.2,1.1"/>
					<path class="st20" d="M1.3,1.2h97.3c0,0,0,0-0.1,0.1L1.3,1.2C1.3,1.2,1.3,1.2,1.3,1.2"/>
					<path class="st19" d="M1.3,1.2h97.2c0,0,0,0-0.1,0.1L1.3,1.2C1.4,1.3,1.3,1.2,1.3,1.2"/>
					<path class="st18" d="M1.4,1.3h97c0,0,0,0-0.1,0.1L1.4,1.3C1.4,1.3,1.4,1.3,1.4,1.3"/>
					<path class="st17" d="M1.4,1.3h96.9c0,0,0,0-0.1,0.1L1.4,1.3C1.5,1.4,1.5,1.4,1.4,1.3"/>
					<path class="st16" d="M1.5,1.4h96.8c0,0,0,0-0.1,0.1L1.5,1.4C1.5,1.4,1.5,1.4,1.5,1.4"/>
					<path class="st15" d="M1.6,1.5h96.7c0,0,0,0-0.1,0.1L1.6,1.5C1.6,1.5,1.6,1.5,1.6,1.5"/>
					<path class="st14" d="M1.6,1.5h96.6c0,0,0,0,0,0L1.6,1.5C1.6,1.5,1.6,1.5,1.6,1.5"/>
					<path class="st13" d="M1.7,1.6h96.5c0,0,0,0,0,0L1.7,1.6C1.7,1.6,1.7,1.6,1.7,1.6"/>
					<path class="st12" d="M1.7,1.6h96.4c0,0,0,0,0,0L1.7,1.6C1.7,1.6,1.7,1.6,1.7,1.6"/>
					<path class="st11" d="M1.7,1.6h96.3c0,0,0,0,0,0L1.7,1.6C1.8,1.6,1.8,1.6,1.7,1.6"/>
					<path class="st10" d="M1.8,1.7H98c0,0,0,0,0,0L1.8,1.7C1.8,1.7,1.8,1.7,1.8,1.7"/>
					<path class="st9" d="M1.8,1.7H98c0,0,0,0,0,0L1.8,1.7C1.8,1.7,1.8,1.7,1.8,1.7"/>
					<path class="st8" d="M1.8,1.7H98c0,0,0,0,0,0L1.8,1.7C1.8,1.7,1.8,1.7,1.8,1.7"/>
					<path class="st7" d="M1.8,1.7H98c0,0,0,0,0,0L1.8,1.7C1.9,1.7,1.9,1.7,1.8,1.7"/>
					<path class="st6" d="M1.9,1.8h96.1c0,0,0,0,0,0L1.9,1.8C1.9,1.8,1.9,1.8,1.9,1.8"/>
					<path class="st5" d="M1.9,1.8h96c0,0,0,0,0,0L1.9,1.8C1.9,1.8,1.9,1.8,1.9,1.8"/>
					<path class="st4" d="M1.9,1.8h96c0,0,0,0,0,0L1.9,1.8C1.9,1.8,1.9,1.8,1.9,1.8"/>
				</g>
			</g>
		</g>
	</g>
</g>
</svg>
